<?xml version="1.0"?>
<svg xmlns="http://www.w3.org/2000/svg" id="Capa_1" enable-background="new 0 0 512.019 512.019" height="20px" viewBox="0 0 512.019 512.019" width="20px" class=""><g><g><g><path d="m475.798 132.469-96.238-96.238 18.976-18.976c13.008-13.008 34.097-13.008 47.104 0l49.134 49.134c13.008 13.008 13.008 34.097 0 47.104z" fill="#f9f3f1" data-original="#F9F3F1" style="fill:#F9F3F1" class=""/></g><g><path d="m494.775 113.495-18.978 18.978-12.839-12.839 18.968-18.978c13.009-13.009 13.009-34.097 0-47.105l12.849 12.839c13.008 13.008 13.008 34.096 0 47.105z" fill="#efe2dd" data-original="#EFE2DD" style="fill:#EFE2DD" class=""/></g><g><path d="m343.102 77.505h136.102v46.741h-136.102z" fill="#766e6e" transform="matrix(.707 .707 -.707 .707 191.754 -261.183)" data-original="#766E6E" class="" style="fill:#766E6E"/></g><g><path d="m443.776 119.205h18.155v46.741h-18.155z" fill="#5b5555" transform="matrix(.707 .707 -.707 .707 233.454 -278.456)" data-original="#5B5555" class="" style="fill:#5B5555"/></g><g><path d="m77.217 434.812-48.119-48.119-21.504 112.205c-.629 3.283 2.253 6.166 5.536 5.536l112.206-21.504z" fill="#f9f3f1" data-original="#F9F3F1" style="fill:#F9F3F1" class=""/></g><g><path d="m125.341 482.928-112.209 21.508c-3.29.63-6.169-2.25-5.539-5.539l1.14-5.939c.87.42 1.89.58 2.95.38l104.12-19.948z" fill="#efe2dd" data-original="#EFE2DD" style="fill:#EFE2DD" class=""/></g><g><path d="m7.594 498.898 9.046-47.204 43.694 43.694-47.204 9.046c-3.283.63-6.165-2.252-5.536-5.536z" fill="#f47c7c" data-original="#F47C7C" class="" style="fill:#69E781" data-old_color="#f47c7c"/></g><g><path d="m60.338 495.387-47.205 9.049c-3.29.63-6.169-2.25-5.539-5.539l1.14-5.939c.87.42 1.89.58 2.95.38l39.116-7.489z" fill="#ee6161" data-original="#EE6161" class="" style="fill:#00AF80" data-old_color="#ee6161"/></g><g><path d="m125.336 482.931-29.23-13.135c-2.559-1.15-4.607-3.198-5.757-5.757l-13.135-29.23-29.226-13.132c-2.559-1.15-4.608-3.199-5.758-5.758l-13.132-29.227 317.41-317.41 96.238 96.238z" fill="#f9b1b1" data-original="#F9B1B1" class="" data-old_color="#f9b1b1" style="fill:#69E781"/></g><g><path d="m442.75 165.52-317.409 317.408-17.718-7.959 322.288-322.288z" fill="#f79595" data-original="#F79595" class="active-path" style="fill:#00AF80" data-old_color="#f79595"/></g><g><path d="m77.214 434.809-29.226-13.132c-2.559-1.15-4.608-3.199-5.758-5.758l-13.132-29.227 317.41-317.41 48.119 48.119z" fill="#f47c7c" data-original="#F47C7C" class="" style="fill:#69E781" data-old_color="#f47c7c"/></g><g><path d="m394.625 117.404-317.409 317.409-19.528-8.779 322.788-322.778z" fill="#ee6161" data-original="#EE6161" class="" style="fill:#00AF80" data-old_color="#ee6161"/></g><path d="m500.076 61.086-9.921-9.92c-2.928-2.929-7.677-2.928-10.605 0-2.929 2.929-2.928 7.677 0 10.605l9.921 9.92c10.063 10.063 10.063 26.436 0 36.499l-13.673 13.673-85.633-85.633 13.673-13.673c10.063-10.063 26.436-10.063 36.499 0l14.515 14.515c2.928 2.928 7.677 2.928 10.605 0 2.929-2.928 2.929-7.677 0-10.605l-14.515-14.515c-7.707-7.707-17.954-11.952-28.855-11.952-10.9 0-21.148 4.245-28.855 11.952l-300.549 300.549c-2.929 2.928-2.929 7.677 0 10.605 2.928 2.928 7.677 2.928 10.605 0l243.22-243.22 37.514 37.514-308.452 308.448-24.506-11.011c-.887-.398-1.594-1.106-1.992-1.991l-11.013-24.508 40.611-40.611c2.929-2.928 2.929-7.677 0-10.605-2.928-2.928-7.677-2.928-10.605 0 0 0-44.345 44.363-44.388 44.408-1.935 2.03-2.156 4.862-2.663 7.511-.42 2.192-20.644 107.721-20.783 108.447-.764 3.986.493 8.079 3.363 10.95 2.317 2.317 5.431 3.583 8.643 3.583.766 0 1.539-.072 2.307-.22 0 0 112.164-21.496 112.221-21.508 1.271-.257 2.701-.967 3.685-1.885.063-.059 369.629-369.611 369.629-369.611 15.908-15.911 15.908-41.8-.003-57.711zm-479.135 408.014.402-2.098 23.684 23.684-.111.021-29.189 5.594zm41.886 18.175-38.073-38.073 7.239-37.771 3.397 7.56c1.904 4.238 5.286 7.62 9.525 9.526l26.627 11.964 11.967 26.631c1.904 4.237 5.287 7.619 9.524 9.523l7.566 3.4zm60.865-13.305-24.51-11.015c-.886-.398-1.594-1.106-1.992-1.992l-11.014-24.511 308.453-308.447 37.514 37.514zm319.055-319.055-85.633-85.633 22.446-22.446 85.633 85.633z" data-original="#000000" class="" style="fill:#000000" data-old_color="#000000"/></g></g> </svg>
